<?xml version="1.0" encoding="UTF-8"?> <svg xmlns="http://www.w3.org/2000/svg" width="106" height="106" viewBox="0 0 106 106" fill="none"> <path d="M104.147 12.8506C105.712 14.4156 105.712 16.9806 104.147 18.5456L72.7668 49.8956C71.2018 51.4556 71.2018 54.0256 72.7668 55.5956L104.132 86.9556C105.697 88.5206 105.697 91.0856 104.132 92.6556L92.7068 104.041C91.1368 105.601 88.5668 105.601 86.9968 104.041L55.6418 72.6856C54.0768 71.1206 51.5018 71.1206 49.9368 72.6856L18.5568 104.021C16.9918 105.586 14.4168 105.586 12.8518 104.021L1.44182 92.6206C-0.123183 91.0556 -0.123183 88.4906 1.44182 86.9206L32.8318 55.5756C34.3968 54.0156 34.3968 51.4456 32.8318 49.8756L1.46682 18.5106C-0.103184 16.9456 -0.103184 14.3756 1.46682 12.8106L12.8868 1.4206C14.4618 -0.139404 17.0268 -0.139403 18.5968 1.4256L49.9468 32.7756C51.5168 34.3456 54.0868 34.3456 55.6518 32.7806L87.0318 1.4456C88.5918 -0.114404 91.1618 -0.114404 92.7368 1.4456L104.147 12.8506Z" fill="#003ACA"></path> </svg> 