<?xml version="1.0" encoding="UTF-8"?> <svg xmlns="http://www.w3.org/2000/svg" width="141" height="19" viewBox="0 0 141 19" fill="none"> <path d="M0.56 0.839999H6.008V13.8H12.248V18H0.56V0.839999ZM22.364 14.04C23.436 14.04 24.284 13.64 24.908 12.84C25.548 12.04 25.868 10.928 25.868 9.504V9.312C25.868 7.872 25.548 6.768 24.908 6C24.284 5.216 23.42 4.824 22.316 4.824C21.244 4.824 20.396 5.208 19.772 5.976C19.148 6.744 18.836 7.856 18.836 9.312V9.504C18.836 10.96 19.148 12.08 19.772 12.864C20.396 13.648 21.26 14.04 22.364 14.04ZM22.22 18.312C19.436 18.312 17.228 17.512 15.596 15.912C13.964 14.296 13.148 12.168 13.148 9.528V9.336C13.148 6.728 14.02 4.616 15.764 3C17.508 1.384 19.692 0.576 22.316 0.576C25.02 0.576 27.228 1.352 28.94 2.904C30.668 4.44 31.532 6.536 31.532 9.192V9.384C31.532 12.072 30.684 14.232 28.988 15.864C27.292 17.496 25.036 18.312 22.22 18.312ZM41.9555 18.312C39.0435 18.312 36.7955 17.512 35.2115 15.912C33.6275 14.312 32.8355 12.184 32.8355 9.528V9.336C32.8355 6.728 33.6995 4.616 35.4275 3C37.1555 1.384 39.3315 0.576 41.9555 0.576C43.4115 0.576 44.7155 0.791999 45.8675 1.224C47.0195 1.656 47.9875 2.368 48.7715 3.36C49.5715 4.352 50.0195 5.584 50.1155 7.056H44.7395C44.5475 5.584 43.6275 4.848 41.9795 4.848C40.8915 4.848 40.0355 5.248 39.4115 6.048C38.8035 6.848 38.4995 7.976 38.4995 9.432V9.624C38.4995 12.664 39.7075 14.184 42.1235 14.184C43.1315 14.184 43.8835 13.984 44.3795 13.584C44.8755 13.168 45.1555 12.64 45.2195 12H42.2915V8.424H50.5235V10.632C50.5235 12.872 49.7875 14.712 48.3155 16.152C46.8435 17.592 44.7235 18.312 41.9555 18.312ZM61.0359 14.04C62.1079 14.04 62.9559 13.64 63.5799 12.84C64.2199 12.04 64.5399 10.928 64.5399 9.504V9.312C64.5399 7.872 64.2199 6.768 63.5799 6C62.9559 5.216 62.0919 4.824 60.9879 4.824C59.9159 4.824 59.0679 5.208 58.4439 5.976C57.8199 6.744 57.5079 7.856 57.5079 9.312V9.504C57.5079 10.96 57.8199 12.08 58.4439 12.864C59.0679 13.648 59.9319 14.04 61.0359 14.04ZM60.8919 18.312C58.1079 18.312 55.8999 17.512 54.2679 15.912C52.6359 14.296 51.8199 12.168 51.8199 9.528V9.336C51.8199 6.728 52.6919 4.616 54.4359 3C56.1799 1.384 58.3639 0.576 60.9879 0.576C63.6919 0.576 65.8999 1.352 67.6119 2.904C69.3399 4.44 70.2039 6.536 70.2039 9.192V9.384C70.2039 12.072 69.3559 14.232 67.6599 15.864C65.9639 17.496 63.7079 18.312 60.8919 18.312ZM76.8491 0.839999H82.2971V7.176H87.3371V0.839999H92.7851V18H87.3371V11.4H82.2971V18H76.8491V0.839999ZM95.9038 0.839999H108.096V5.016H101.328V7.44H106.704V11.256H101.328V13.824H108.48V18H95.9038V0.839999ZM110.787 0.839999H117.795C122.579 0.839999 124.971 2.696 124.971 6.408V6.504C124.971 8.616 124.003 10.112 122.067 10.992L125.979 18H120.267L117.075 12.12H116.211V18H110.787V0.839999ZM117.483 8.616C118.971 8.616 119.715 7.992 119.715 6.744V6.648C119.715 6.04 119.531 5.6 119.163 5.328C118.811 5.056 118.259 4.92 117.507 4.92H116.211V8.616H117.483ZM127.826 0.839999H140.018V5.016H133.25V7.44H138.626V11.256H133.25V13.824H140.402V18H127.826V0.839999Z" fill="#0C0B0B"></path> </svg> 